HIERARCHY
ROOT Hips
{
	OFFSET 0.000000 0.000000 0.000000 
	CHANNELS 6 Xposition Yposition Zposition Zrotation Yrotation Xrotation
	JOINT LeftUpLeg
	{
		OFFSET 1.363060 -1.794630 0.839290 
		CHANNELS 3 Zrotation Yrotation Xrotation
		JOINT LeftLeg
		{
			OFFSET 2.448110 -6.726130 0.000000 
			CHANNELS 3 Zrotation Yrotation Xrotation
			JOINT LeftFoot
			{
				OFFSET 2.562200 -7.039590 0.000000 
				CHANNELS 3 Zrotation Yrotation Xrotation
				JOINT LeftToeBase
				{
					OFFSET 0.157640 -0.433110 2.322550 
					CHANNELS 3 Zrotation Yrotation Xrotation
					End Site
					{
						OFFSET 0.000000 0.000000 0.000000 
					}
				}
			}
		}
	}
	JOINT RightUpLeg
	{
		OFFSET -1.305520 -1.794630 0.839290 
		CHANNELS 3 Zrotation Yrotation Xrotation
		JOINT RightLeg
		{
			OFFSET -2.542530 -6.985550 0.000000 
			CHANNELS 3 Zrotation Yrotation Xrotation
			JOINT RightFoot
			{
				OFFSET -2.568260 -7.056230 0.000000 
				CHANNELS 3 Zrotation Yrotation Xrotation
				JOINT RightToeBase
				{
					OFFSET -0.164730 -0.452590 2.363150 
					CHANNELS 3 Zrotation Yrotation Xrotation
					End Site
					{
						OFFSET 0.000000 0.000000 0.000000 
					}
				}
			}
		}
	}
	JOINT Spine
	{
		OFFSET 0.028270 2.035590 -0.193380 
		CHANNELS 3 Zrotation Yrotation Xrotation
		JOINT Spine1
		{
			OFFSET 0.056720 2.048850 -0.042750 
			CHANNELS 3 Zrotation Yrotation Xrotation
			JOINT Neck1
			{
				OFFSET -0.054170 1.746240 0.172020 
				CHANNELS 3 Zrotation Yrotation Xrotation
				JOINT Head
				{
					OFFSET 0.104070 1.761360 -0.123970 
					CHANNELS 3 Zrotation Yrotation Xrotation
					End Site
					{
						OFFSET 0.000000 0.000000 0.000000 
					}
				}
			}
			JOINT LeftArm
			{
				OFFSET 3.362410 1.200890 -0.311210 
				CHANNELS 3 Zrotation Yrotation Xrotation
				JOINT LeftForeArm
				{
					OFFSET 4.983000 -0.000000 -0.000000 
					CHANNELS 3 Zrotation Yrotation Xrotation
					JOINT LeftHand
					{
						OFFSET 3.483560 -0.000000 -0.000000 
						CHANNELS 3 Zrotation Yrotation Xrotation
						JOINT LeftHandIndex1
						{
							OFFSET 0.715260 -0.000000 -0.000000 
							CHANNELS 3 Zrotation Yrotation Xrotation
							End Site
							{
								OFFSET 0.000000 0.000000 0.000000 
							}
						}
					}
				}
			}
			JOINT RightArm
			{
				OFFSET -3.136600 1.374050 -0.404650 
				CHANNELS 3 Zrotation Yrotation Xrotation
				JOINT RightForeArm
				{
					OFFSET -5.241900 -0.000000 -0.000000 
					CHANNELS 3 Zrotation Yrotation Xrotation
					JOINT RightHand
					{
						OFFSET -3.444170 -0.000000 -0.000000 
						CHANNELS 3 Zrotation Yrotation Xrotation
						JOINT RightHandIndex1
						{
							OFFSET -0.622530 -0.000000 -0.000000 
							CHANNELS 3 Zrotation Yrotation Xrotation
							End Site
							{
								OFFSET 0.000000 0.000000 0.000000 
							}
						}
					}
				}
			}
		}
	}
}
MOTION
Frames: 9
Frame Time: 0.041667
10.357137 18.092389 -2.549589 1.700137 -12.915849 7.381008 -17.599117 2.858628 -31.350580 -1.675028 10.668379 25.645100 0.589576 3.478718 15.543629 0.018100 0.867500 2.384200 12.114758 6.919314 -5.466323 -7.838759 -15.554605 51.049460 1.526424 -15.387483 31.785943 -0.005100 0.463400 -1.273200 0.020750 6.821533 -3.856679 -2.851386 3.863722 -1.224588 5.523249 -1.533815 8.387679 1.581700 -0.623300 4.910900 -90.605668 19.939058 -26.817963 2.014955 -5.347659 -0.471609 -0.174096 1.155108 27.358903 -7.125000 0.000000 0.000000 81.174251 16.327288 25.617392 -29.872364 37.084381 -13.635381 2.091031 1.841569 -21.550608 7.125000 0.000000 0.000000 
10.359051 18.121217 -2.326848 1.409124 -12.632842 7.411074 -17.341569 2.666863 -30.557045 -1.706113 10.472131 25.352733 0.557194 3.489937 15.190657 0.012800 0.731500 2.010200 12.794816 7.371331 -7.061764 -8.218167 -16.090339 53.414217 1.299318 -12.840581 30.165657 -0.157000 2.552700 -7.035700 0.088380 6.585421 -3.887408 -2.780250 3.698378 -1.438880 5.223025 -1.360527 8.429280 1.359500 -0.555600 4.927800 -90.330939 18.387930 -27.298813 2.020124 -5.250308 -0.479919 -0.139735 1.189671 28.221301 -7.125000 0.000000 0.000000 81.688477 15.338323 26.102275 -28.955480 36.541683 -13.067903 2.084020 1.884932 -21.713754 7.125000 0.000000 0.000000 
10.370875 18.158491 -2.087328 1.349222 -12.290310 7.304454 -17.410092 2.472886 -29.615944 -1.737320 10.297024 25.134052 0.540626 3.369761 14.521362 0.007500 0.558200 1.533900 13.071364 7.723101 -8.554963 -8.539128 -16.546884 55.492625 1.020600 -10.207134 28.485213 -0.544100 4.725800 -13.128100 0.128946 6.369418 -3.900210 -2.782482 3.543982 -1.563400 4.848002 -1.283951 8.532093 1.062400 -0.535100 4.977000 -90.049257 16.969349 -27.706141 2.154791 -5.335897 -0.517853 -0.173182 1.252359 29.136120 -7.125000 0.000000 0.000000 82.421411 14.045406 26.278162 -28.317795 36.192227 -12.622630 2.064538 1.855896 -21.414024 7.125000 0.000000 0.000000 
10.386078 18.213107 -1.837335 1.617057 -11.936393 7.025819 -17.942703 2.407176 -28.611408 -1.747246 10.181954 25.080135 0.517296 3.187855 13.528346 0.013500 -0.751200 -2.064400 12.900777 7.845639 -9.869190 -8.814544 -16.912169 57.219171 0.803950 -7.887109 26.438941 -0.968700 6.266100 -17.558400 0.126513 6.150469 -3.893383 -2.811411 3.393247 -1.655139 4.735557 -1.286718 8.622081 0.986500 -0.542700 4.996800 -89.817757 15.694943 -28.160228 2.359719 -5.513985 -0.597575 -0.118251 1.410480 30.693117 -7.125000 0.000000 0.000000 83.147992 12.462044 26.388488 -27.858591 35.998904 -12.280284 2.027428 1.821700 -21.191590 7.125000 0.000000 0.000000 
10.392722 18.259389 -1.597027 1.929799 -11.406225 6.820142 -18.494527 2.249496 -27.647995 -1.781059 10.041062 24.910579 0.467133 3.141285 12.726541 0.091900 -1.955300 -5.382200 12.739704 7.712722 -11.280798 -9.133873 -17.263138 58.654506 0.779757 -6.720134 24.405893 -1.222600 7.013300 -19.754700 0.128908 5.880941 -3.872907 -2.670136 3.221632 -1.710258 4.989212 -1.232252 8.454426 1.241200 -0.514700 4.795800 -89.485610 14.212796 -28.508411 2.499427 -5.606876 -0.680760 0.004003 1.581437 32.331467 -7.125000 0.000000 0.000000 83.742128 10.845273 26.053098 -27.109770 35.712211 -12.063729 2.038463 1.929712 -21.083987 7.125000 0.000000 0.000000 
10.405221 18.290694 -1.354128 2.006592 -10.792967 6.759521 -18.675559 1.714595 -26.545781 -1.830147 9.874395 24.669851 0.472516 2.955065 11.977834 0.069000 -1.694700 -4.662700 12.775019 7.610438 -12.749024 -9.421203 -17.604915 59.838028 0.800699 -6.013458 22.593475 -1.209100 6.975700 -19.643500 0.144711 5.659343 -3.846529 -2.562172 3.068456 -1.672137 5.277876 -1.242493 8.238721 1.545300 -0.518900 4.561500 -89.057050 12.502668 -28.666936 2.714297 -5.788437 -0.752316 0.087802 1.669970 33.127816 -7.125000 0.000000 0.000000 84.217961 9.236214 25.843749 -26.459797 35.343744 -11.631671 2.009289 1.901158 -20.631119 7.125000 0.000000 0.000000 
10.419973 18.317721 -1.112693 1.893495 -10.327940 6.701336 -18.640109 1.308171 -25.522295 -1.853243 9.743406 24.561170 0.628810 2.352333 11.357704 0.018400 -0.875900 -2.407500 12.981698 7.745198 -14.062404 -9.619728 -17.908042 60.799041 0.752276 -5.146133 20.832479 -1.137000 6.772000 -19.041500 0.170635 5.479264 -3.848159 -2.617118 2.931917 -1.676951 5.265154 -1.257660 8.501035 1.568700 -0.530500 4.734200 -88.815897 10.930794 -24.388730 3.032150 -6.345378 -0.810821 -0.021498 1.660787 29.646310 -7.125000 0.000000 0.000000 84.873900 7.905011 25.689607 -25.694490 34.816890 -11.085454 1.986530 1.835404 -20.209495 7.125000 0.000000 0.000000 
10.418171 18.330108 -0.888601 1.866636 -9.907952 6.618950 -18.689266 1.100573 -24.743051 -1.848592 9.668496 24.584412 0.802260 1.712499 10.820560 0.013300 -0.745200 -2.047900 13.184871 7.880809 -15.407036 -9.786579 -18.191504 61.625706 0.684379 -4.309163 19.022391 -1.410300 7.511100 -21.238800 0.216030 5.262987 -3.872226 -2.498704 2.785969 -1.798104 5.125418 -1.164759 8.924869 1.457900 -0.492100 5.031000 -88.700794 9.453727 -20.503035 3.335382 -6.868286 -0.890820 -0.049116 1.695060 26.678276 -7.125000 0.000000 0.000000 85.562483 6.566841 25.461658 -24.693615 34.187157 -10.641177 1.928385 1.972346 -20.451033 7.125000 0.000000 0.000000 
10.416257 18.345085 -0.663607 1.625315 -9.463140 6.545080 -18.529315 0.880235 -24.005138 -1.807907 9.630551 24.671159 0.802727 1.590136 10.066253 0.067500 -1.676700 -4.612900 13.598439 7.995778 -16.716863 -9.885634 -18.446635 62.210212 0.633091 -3.676428 17.298381 -1.528400 7.805800 -22.125600 0.279321 5.053186 -3.895848 -2.337804 2.646290 -2.017632 5.146688 -1.096336 9.067491 1.484200 -0.461900 5.056000 -88.477973 7.942274 -16.573535 3.666635 -7.414407 -0.986454 -0.072586 1.745961 23.232879 -7.125000 0.000000 0.000000 85.997965 4.975511 25.684687 -23.855239 33.465460 -9.924257 2.019097 1.699810 -20.546900 7.125000 0.000000 0.000000 
